<svg width="413" height="104" viewBox="0 0 413 104" fill="none" xmlns="http://www.w3.org/2000/svg">
<path d="M2 59V57C1.42116 57 0.870716 57.2508 0.490869 57.6876C0.111022 58.1243 -0.0609649 58.7042 0.0193418 59.2775L2 59ZM16.194 59L18.1563 58.6133C17.9715 57.6759 17.1495 57 16.194 57V59ZM86.8337 59L88.796 59.3867C88.9116 58.7998 88.7585 58.1919 88.3786 57.7298C87.9987 57.2678 87.4319 57 86.8337 57V59ZM64.7837 59V57C64.0424 57 63.3619 57.41 63.0155 58.0654L64.7837 59ZM64.7837 45L63.0155 45.9346C63.3619 46.59 64.0424 47 64.7837 47V45ZM86.8337 45V47C87.4319 47 87.9987 46.7322 88.3786 46.2702C88.7585 45.8081 88.9116 45.2002 88.796 44.6133L86.8337 45ZM16.194 45V47C17.1495 47 17.9715 46.3241 18.1563 45.3867L16.194 45ZM2 45L0.0193418 44.7225C-0.0609649 45.2958 0.111022 45.8757 0.490869 46.3124C0.870716 46.7492 1.42116 47 2 47V45ZM51.5139 104C80.2327 104 103.514 80.7188 103.514 52H99.5139C99.5139 78.5097 78.0236 100 51.5139 100V104ZM0.0193418 59.2775C3.56008 84.5517 25.2641 104 51.5139 104V100C27.2865 100 7.24852 82.0489 3.98066 58.7225L0.0193418 59.2775ZM16.194 57H2V61H16.194V57ZM14.2317 59.3867C17.6707 76.8378 33.0529 90 51.5139 90V86C35.0005 86 21.2329 74.2256 18.1563 58.6133L14.2317 59.3867ZM51.5139 90C69.9747 90 85.357 76.8378 88.796 59.3867L84.8714 58.6133C81.7948 74.2256 68.0272 86 51.5139 86V90ZM86.8337 57H64.7837V61H86.8337V57ZM63.0155 58.0654C60.8332 62.1938 56.4997 65 51.5139 65V69C58.0402 69 63.7043 65.3218 66.5518 59.9346L63.0155 58.0654ZM51.5139 65C44.3343 65 38.5139 59.1797 38.5139 52H34.5139C34.5139 61.3888 42.1251 69 51.5139 69V65ZM38.5139 52C38.5139 44.8203 44.3343 39 51.5139 39V35C42.1251 35 34.5139 42.6112 34.5139 52H38.5139ZM51.5139 39C56.4997 39 60.8332 41.8062 63.0155 45.9346L66.5518 44.0654C63.7043 38.6782 58.0402 35 51.5139 35V39ZM64.7837 47H86.8337V43H64.7837V47ZM88.796 44.6133C85.357 27.1622 69.9747 14 51.5139 14V18C68.0272 18 81.7948 29.7744 84.8714 45.3867L88.796 44.6133ZM51.5139 14C33.0529 14 17.6707 27.1622 14.2317 44.6133L18.1563 45.3867C21.2329 29.7744 35.0005 18 51.5139 18V14ZM2 47H16.194V43H2V47ZM51.5139 0C25.2641 0 3.56008 19.4483 0.0193418 44.7225L3.98066 45.2775C7.24852 21.9511 27.2865 4 51.5139 4V0ZM103.514 52C103.514 23.2812 80.2327 0 51.5139 0V4C78.0236 4 99.5139 25.4903 99.5139 52H103.514Z" fill="black"/>
<mask id="path-2-outside-1_10:22" maskUnits="userSpaceOnUse" x="123" y="27" width="277" height="51" fill="black">
<rect fill="white" x="123" y="27" width="277" height="51"/>
<path d="M147.421 77C142.96 77 138.945 76.0636 135.376 74.1907C131.852 72.2742 129.063 69.552 127.011 66.024C125.004 62.4524 124 58.2929 124 53.5453C124 48.7978 125.004 44.66 127.011 41.132C129.063 37.5604 131.852 34.8382 135.376 32.9653C138.945 31.0489 142.96 30.0907 147.421 30.0907C150.455 30.0907 153.154 30.4391 155.518 31.136C157.927 31.8329 160.314 32.8347 162.678 34.1413C163.66 34.664 164.15 35.4916 164.15 36.624C164.15 37.2773 163.905 37.8653 163.414 38.388C162.924 38.8671 162.277 39.1067 161.474 39.1067C161.028 39.1067 160.626 39.0196 160.269 38.8453C158.306 37.8436 156.388 37.0813 154.514 36.5587C152.641 36.036 150.477 35.7747 148.023 35.7747C144.187 35.7747 140.908 36.5587 138.187 38.1267C135.51 39.6511 133.48 41.7636 132.097 44.464C130.759 47.1209 130.089 50.148 130.089 53.5453C130.089 56.9427 130.759 59.9916 132.097 62.692C133.48 65.3489 135.51 67.4613 138.187 69.0293C140.908 70.5538 144.187 71.316 148.023 71.316C150.477 71.316 152.641 71.0547 154.514 70.532C156.388 70.0093 158.306 69.2471 160.269 68.2453C160.626 68.0711 161.028 67.984 161.474 67.984C162.277 67.984 162.924 68.2236 163.414 68.7027C163.905 69.1818 164.15 69.7698 164.15 70.4667C164.15 71.5991 163.66 72.4267 162.678 72.9493C160.314 74.256 157.927 75.2578 155.518 75.9547C153.154 76.6516 150.455 77 147.421 77Z"/>
<path d="M175.146 76.6733C174.298 76.6733 173.584 76.3902 173.005 75.824C172.425 75.2578 172.135 74.5609 172.135 73.7333V31.332C172.135 30.5044 172.425 29.8076 173.005 29.2413C173.584 28.6316 174.298 28.3267 175.146 28.3267C176.038 28.3267 176.774 28.6098 177.354 29.176C177.934 29.7422 178.224 30.4609 178.224 31.332V73.7333C178.224 74.5609 177.912 75.2578 177.287 75.824C176.707 76.3902 175.993 76.6733 175.146 76.6733Z"/>
<path d="M191.676 36.232C190.739 36.232 189.936 35.9053 189.267 35.252C188.598 34.5987 188.263 33.8147 188.263 32.9V32.6387C188.263 31.724 188.598 30.94 189.267 30.2867C189.936 29.6333 190.739 29.3067 191.676 29.3067H192.078C193.014 29.3067 193.817 29.6333 194.487 30.2867C195.156 30.94 195.49 31.724 195.49 32.6387V32.9C195.49 33.8147 195.156 34.5987 194.487 35.252C193.817 35.9053 193.014 36.232 192.078 36.232H191.676ZM191.81 76.6733C190.962 76.6733 190.248 76.3902 189.669 75.824C189.089 75.2578 188.799 74.5609 188.799 73.7333V45.7053C188.799 44.8778 189.089 44.1809 189.669 43.6147C190.248 43.0049 190.962 42.7 191.81 42.7C192.702 42.7 193.438 42.9831 194.018 43.5493C194.598 44.1156 194.888 44.8342 194.888 45.7053V73.7333C194.888 74.5609 194.576 75.2578 193.951 75.824C193.371 76.3902 192.658 76.6733 191.81 76.6733Z"/>
<path d="M221.255 77C218.043 77 215.076 76.3031 212.355 74.9093C209.634 73.5156 207.448 71.512 205.797 68.8987C204.191 66.2853 203.388 63.2147 203.388 59.6867C203.388 56.1587 204.191 53.088 205.797 50.4747C207.448 47.8613 209.634 45.8578 212.355 44.464C215.076 43.0702 218.043 42.3733 221.255 42.3733C223.62 42.3733 225.649 42.6782 227.345 43.288C229.084 43.8542 230.691 44.5947 232.163 45.5093C233.055 46.0756 233.501 46.8378 233.501 47.796C233.501 48.4493 233.233 49.0591 232.698 49.6253C232.207 50.148 231.627 50.4093 230.958 50.4093C230.467 50.4093 229.977 50.2787 229.486 50.0173C228.014 49.2769 226.742 48.7542 225.672 48.4493C224.646 48.1009 223.352 47.9267 221.79 47.9267C217.954 47.9267 214.943 49.0156 212.757 51.1933C210.571 53.3276 209.478 56.1587 209.478 59.6867C209.478 63.2147 210.571 66.0676 212.757 68.2453C214.943 70.3796 217.954 71.4467 221.79 71.4467C223.352 71.4467 224.646 71.2942 225.672 70.9893C226.742 70.6409 228.014 70.0964 229.486 69.356C229.977 69.0947 230.467 68.964 230.958 68.964C231.627 68.964 232.207 69.2471 232.698 69.8133C233.233 70.336 233.501 70.924 233.501 71.5773C233.501 72.5356 233.055 73.2978 232.163 73.864C230.691 74.7787 229.084 75.5409 227.345 76.1507C225.649 76.7169 223.62 77 221.255 77Z"/>
<path d="M244.155 76.6733C243.307 76.6733 242.593 76.3902 242.013 75.824C241.433 75.2578 241.143 74.5609 241.143 73.7333V31.332C241.143 30.5044 241.433 29.8076 242.013 29.2413C242.593 28.6316 243.307 28.3267 244.155 28.3267C245.002 28.3267 245.716 28.6316 246.296 29.2413C246.92 29.8076 247.233 30.5044 247.233 31.332V58.0533L263.159 43.68C263.828 43.1138 264.497 42.8307 265.167 42.8307C266.193 42.8307 266.929 43.1138 267.375 43.68C267.866 44.2462 268.111 44.9213 268.111 45.7053C268.111 46.4458 267.732 47.1862 266.973 47.9267L257.337 56.3547L269.449 72.0347C269.895 72.6009 270.119 73.1889 270.119 73.7987C270.119 74.6698 269.829 75.3667 269.249 75.8893C268.669 76.412 267.933 76.6733 267.04 76.6733C266.594 76.6733 266.148 76.5644 265.702 76.3467C265.256 76.1289 264.877 75.824 264.564 75.432L253.055 60.144L247.233 65.3053V73.7333C247.233 74.5609 246.92 75.2578 246.296 75.824C245.716 76.3902 245.002 76.6733 244.155 76.6733Z"/>
<path d="M283.162 76.6733C282.315 76.6733 281.601 76.3902 281.021 75.824C280.441 75.2578 280.151 74.5609 280.151 73.7333V48.1227H276.203C275.489 48.1227 274.864 47.8831 274.329 47.404C273.838 46.8813 273.593 46.2716 273.593 45.5747C273.593 44.8342 273.838 44.2244 274.329 43.7453C274.864 43.2662 275.489 43.0267 276.203 43.0267H280.151V39.2373C280.151 36.624 280.619 34.4898 281.556 32.8347C282.538 31.136 283.787 29.9164 285.304 29.176C286.865 28.392 288.493 28 290.189 28C292.285 28 294.226 28.4356 296.01 29.3067C296.456 29.5244 296.813 29.8511 297.081 30.2867C297.393 30.6787 297.549 31.1142 297.549 31.5933C297.549 32.2467 297.304 32.8347 296.813 33.3573C296.323 33.8364 295.743 34.076 295.073 34.076C294.583 34.076 294.07 34.0107 293.534 33.88C292.464 33.7493 291.861 33.684 291.728 33.684C289.899 33.684 288.516 34.0978 287.579 34.9253C286.686 35.7529 286.24 37.2556 286.24 39.4333V43.0267H294.605C295.363 43.0267 295.988 43.2662 296.479 43.7453C296.969 44.2244 297.215 44.8342 297.215 45.5747C297.215 46.2716 296.969 46.8813 296.479 47.404C295.988 47.8831 295.363 48.1227 294.605 48.1227H286.24V73.7333C286.24 74.5609 285.928 75.2578 285.304 75.824C284.724 76.3902 284.01 76.6733 283.162 76.6733Z"/>
<path d="M306.69 36.232C305.754 36.232 304.951 35.9053 304.281 35.252C303.612 34.5987 303.278 33.8147 303.278 32.9V32.6387C303.278 31.724 303.612 30.94 304.281 30.2867C304.951 29.6333 305.754 29.3067 306.69 29.3067H307.092C308.029 29.3067 308.832 29.6333 309.501 30.2867C310.17 30.94 310.505 31.724 310.505 32.6387V32.9C310.505 33.8147 310.17 34.5987 309.501 35.252C308.832 35.9053 308.029 36.232 307.092 36.232H306.69ZM306.824 76.6733C305.977 76.6733 305.263 76.3902 304.683 75.824C304.103 75.2578 303.813 74.5609 303.813 73.7333V45.7053C303.813 44.8778 304.103 44.1809 304.683 43.6147C305.263 43.0049 305.977 42.7 306.824 42.7C307.717 42.7 308.453 42.9831 309.033 43.5493C309.613 44.1156 309.903 44.8342 309.903 45.7053V73.7333C309.903 74.5609 309.59 75.2578 308.966 75.824C308.386 76.3902 307.672 76.6733 306.824 76.6733Z"/>
<path d="M323.488 76.6733C322.641 76.6733 321.927 76.3902 321.347 75.824C320.767 75.2578 320.477 74.5609 320.477 73.7333V31.332C320.477 30.5044 320.767 29.8076 321.347 29.2413C321.927 28.6316 322.641 28.3267 323.488 28.3267C324.381 28.3267 325.117 28.6098 325.697 29.176C326.277 29.7422 326.567 30.4609 326.567 31.332V73.7333C326.567 74.5609 326.254 75.2578 325.63 75.824C325.05 76.3902 324.336 76.6733 323.488 76.6733Z"/>
<path d="M352.398 77C346.956 77 342.695 75.4973 339.617 72.492C336.583 69.4431 335.067 65.1747 335.067 59.6867C335.067 56.5942 335.647 53.7413 336.806 51.128C337.966 48.5147 339.751 46.4022 342.16 44.7907C344.569 43.1791 347.536 42.3733 351.06 42.3733C354.361 42.3733 357.216 43.1356 359.625 44.66C362.034 46.1409 363.863 48.1444 365.113 50.6707C366.362 53.1533 366.986 55.8756 366.986 58.8373C366.986 59.6649 366.696 60.3618 366.116 60.928C365.581 61.4942 364.845 61.7773 363.908 61.7773H341.223C341.58 64.8262 342.74 67.2 344.703 68.8987C346.666 70.5973 349.409 71.4467 352.934 71.4467C354.807 71.4467 356.436 71.2724 357.819 70.924C359.246 70.5756 360.629 70.0747 361.967 69.4213C362.324 69.2471 362.726 69.16 363.172 69.16C363.886 69.16 364.51 69.3996 365.046 69.8787C365.581 70.3578 365.849 70.9676 365.849 71.708C365.849 72.6662 365.269 73.472 364.109 74.1253C362.369 75.0836 360.651 75.8022 358.956 76.2813C357.261 76.7604 355.075 77 352.398 77ZM360.964 56.9427C360.83 54.8084 360.25 53.0227 359.224 51.5853C358.242 50.148 357.016 49.1027 355.543 48.4493C354.071 47.7524 352.577 47.404 351.06 47.404C349.543 47.404 348.049 47.7524 346.576 48.4493C345.104 49.1027 343.877 50.148 342.896 51.5853C341.915 53.0227 341.357 54.8084 341.223 56.9427H360.964Z"/>
<path d="M386.085 77C381.624 77 377.564 76.02 373.906 74.06C373.148 73.5373 372.768 72.8187 372.768 71.904C372.768 71.2071 373.014 70.5973 373.504 70.0747C373.995 69.552 374.62 69.2907 375.378 69.2907C375.78 69.2907 376.181 69.3778 376.583 69.552C378.01 70.1618 379.438 70.6409 380.865 70.9893C382.293 71.3378 383.899 71.512 385.683 71.512C390.635 71.512 393.111 69.9658 393.111 66.8733C393.111 65.8716 392.531 65.1093 391.371 64.5867C390.256 64.064 388.405 63.476 385.817 62.8227C383.185 62.2129 380.999 61.5813 379.259 60.928C377.564 60.2747 376.092 59.2947 374.843 57.988C373.638 56.6378 373.036 54.8738 373.036 52.696C373.036 49.6471 374.151 47.1644 376.382 45.248C378.657 43.3316 381.891 42.3733 386.085 42.3733C389.52 42.3733 392.754 42.9178 395.788 44.0067C396.413 44.1809 396.881 44.5076 397.193 44.9867C397.55 45.4658 397.729 45.9667 397.729 46.4893C397.729 47.1862 397.461 47.796 396.926 48.3187C396.435 48.8413 395.81 49.1027 395.052 49.1027C394.829 49.1027 394.539 49.0591 394.182 48.972C391.594 48.188 389.052 47.796 386.553 47.796C384.144 47.796 382.248 48.2316 380.865 49.1027C379.527 49.9302 378.858 51.0191 378.858 52.3693C378.858 53.676 379.482 54.6342 380.732 55.244C381.981 55.8538 383.921 56.4418 386.553 57.008C389.185 57.6613 391.327 58.3147 392.977 58.968C394.628 59.5778 396.033 60.5578 397.193 61.908C398.398 63.2582 399 65.0658 399 67.3307C399 70.1182 397.862 72.4267 395.587 74.256C393.357 76.0853 390.189 77 386.085 77Z"/>
</mask>
<path d="M147.421 77C142.96 77 138.945 76.0636 135.376 74.1907C131.852 72.2742 129.063 69.552 127.011 66.024C125.004 62.4524 124 58.2929 124 53.5453C124 48.7978 125.004 44.66 127.011 41.132C129.063 37.5604 131.852 34.8382 135.376 32.9653C138.945 31.0489 142.96 30.0907 147.421 30.0907C150.455 30.0907 153.154 30.4391 155.518 31.136C157.927 31.8329 160.314 32.8347 162.678 34.1413C163.66 34.664 164.15 35.4916 164.15 36.624C164.15 37.2773 163.905 37.8653 163.414 38.388C162.924 38.8671 162.277 39.1067 161.474 39.1067C161.028 39.1067 160.626 39.0196 160.269 38.8453C158.306 37.8436 156.388 37.0813 154.514 36.5587C152.641 36.036 150.477 35.7747 148.023 35.7747C144.187 35.7747 140.908 36.5587 138.187 38.1267C135.51 39.6511 133.48 41.7636 132.097 44.464C130.759 47.1209 130.089 50.148 130.089 53.5453C130.089 56.9427 130.759 59.9916 132.097 62.692C133.48 65.3489 135.51 67.4613 138.187 69.0293C140.908 70.5538 144.187 71.316 148.023 71.316C150.477 71.316 152.641 71.0547 154.514 70.532C156.388 70.0093 158.306 69.2471 160.269 68.2453C160.626 68.0711 161.028 67.984 161.474 67.984C162.277 67.984 162.924 68.2236 163.414 68.7027C163.905 69.1818 164.15 69.7698 164.15 70.4667C164.15 71.5991 163.66 72.4267 162.678 72.9493C160.314 74.256 157.927 75.2578 155.518 75.9547C153.154 76.6516 150.455 77 147.421 77Z" fill="black"/>
<path d="M175.146 76.6733C174.298 76.6733 173.584 76.3902 173.005 75.824C172.425 75.2578 172.135 74.5609 172.135 73.7333V31.332C172.135 30.5044 172.425 29.8076 173.005 29.2413C173.584 28.6316 174.298 28.3267 175.146 28.3267C176.038 28.3267 176.774 28.6098 177.354 29.176C177.934 29.7422 178.224 30.4609 178.224 31.332V73.7333C178.224 74.5609 177.912 75.2578 177.287 75.824C176.707 76.3902 175.993 76.6733 175.146 76.6733Z" fill="black"/>
<path d="M191.676 36.232C190.739 36.232 189.936 35.9053 189.267 35.252C188.598 34.5987 188.263 33.8147 188.263 32.9V32.6387C188.263 31.724 188.598 30.94 189.267 30.2867C189.936 29.6333 190.739 29.3067 191.676 29.3067H192.078C193.014 29.3067 193.817 29.6333 194.487 30.2867C195.156 30.94 195.49 31.724 195.49 32.6387V32.9C195.49 33.8147 195.156 34.5987 194.487 35.252C193.817 35.9053 193.014 36.232 192.078 36.232H191.676ZM191.81 76.6733C190.962 76.6733 190.248 76.3902 189.669 75.824C189.089 75.2578 188.799 74.5609 188.799 73.7333V45.7053C188.799 44.8778 189.089 44.1809 189.669 43.6147C190.248 43.0049 190.962 42.7 191.81 42.7C192.702 42.7 193.438 42.9831 194.018 43.5493C194.598 44.1156 194.888 44.8342 194.888 45.7053V73.7333C194.888 74.5609 194.576 75.2578 193.951 75.824C193.371 76.3902 192.658 76.6733 191.81 76.6733Z" fill="black"/>
<path d="M221.255 77C218.043 77 215.076 76.3031 212.355 74.9093C209.634 73.5156 207.448 71.512 205.797 68.8987C204.191 66.2853 203.388 63.2147 203.388 59.6867C203.388 56.1587 204.191 53.088 205.797 50.4747C207.448 47.8613 209.634 45.8578 212.355 44.464C215.076 43.0702 218.043 42.3733 221.255 42.3733C223.62 42.3733 225.649 42.6782 227.345 43.288C229.084 43.8542 230.691 44.5947 232.163 45.5093C233.055 46.0756 233.501 46.8378 233.501 47.796C233.501 48.4493 233.233 49.0591 232.698 49.6253C232.207 50.148 231.627 50.4093 230.958 50.4093C230.467 50.4093 229.977 50.2787 229.486 50.0173C228.014 49.2769 226.742 48.7542 225.672 48.4493C224.646 48.1009 223.352 47.9267 221.79 47.9267C217.954 47.9267 214.943 49.0156 212.757 51.1933C210.571 53.3276 209.478 56.1587 209.478 59.6867C209.478 63.2147 210.571 66.0676 212.757 68.2453C214.943 70.3796 217.954 71.4467 221.79 71.4467C223.352 71.4467 224.646 71.2942 225.672 70.9893C226.742 70.6409 228.014 70.0964 229.486 69.356C229.977 69.0947 230.467 68.964 230.958 68.964C231.627 68.964 232.207 69.2471 232.698 69.8133C233.233 70.336 233.501 70.924 233.501 71.5773C233.501 72.5356 233.055 73.2978 232.163 73.864C230.691 74.7787 229.084 75.5409 227.345 76.1507C225.649 76.7169 223.62 77 221.255 77Z" fill="black"/>
<path d="M244.155 76.6733C243.307 76.6733 242.593 76.3902 242.013 75.824C241.433 75.2578 241.143 74.5609 241.143 73.7333V31.332C241.143 30.5044 241.433 29.8076 242.013 29.2413C242.593 28.6316 243.307 28.3267 244.155 28.3267C245.002 28.3267 245.716 28.6316 246.296 29.2413C246.92 29.8076 247.233 30.5044 247.233 31.332V58.0533L263.159 43.68C263.828 43.1138 264.497 42.8307 265.167 42.8307C266.193 42.8307 266.929 43.1138 267.375 43.68C267.866 44.2462 268.111 44.9213 268.111 45.7053C268.111 46.4458 267.732 47.1862 266.973 47.9267L257.337 56.3547L269.449 72.0347C269.895 72.6009 270.119 73.1889 270.119 73.7987C270.119 74.6698 269.829 75.3667 269.249 75.8893C268.669 76.412 267.933 76.6733 267.04 76.6733C266.594 76.6733 266.148 76.5644 265.702 76.3467C265.256 76.1289 264.877 75.824 264.564 75.432L253.055 60.144L247.233 65.3053V73.7333C247.233 74.5609 246.92 75.2578 246.296 75.824C245.716 76.3902 245.002 76.6733 244.155 76.6733Z" fill="black"/>
<path d="M283.162 76.6733C282.315 76.6733 281.601 76.3902 281.021 75.824C280.441 75.2578 280.151 74.5609 280.151 73.7333V48.1227H276.203C275.489 48.1227 274.864 47.8831 274.329 47.404C273.838 46.8813 273.593 46.2716 273.593 45.5747C273.593 44.8342 273.838 44.2244 274.329 43.7453C274.864 43.2662 275.489 43.0267 276.203 43.0267H280.151V39.2373C280.151 36.624 280.619 34.4898 281.556 32.8347C282.538 31.136 283.787 29.9164 285.304 29.176C286.865 28.392 288.493 28 290.189 28C292.285 28 294.226 28.4356 296.01 29.3067C296.456 29.5244 296.813 29.8511 297.081 30.2867C297.393 30.6787 297.549 31.1142 297.549 31.5933C297.549 32.2467 297.304 32.8347 296.813 33.3573C296.323 33.8364 295.743 34.076 295.073 34.076C294.583 34.076 294.07 34.0107 293.534 33.88C292.464 33.7493 291.861 33.684 291.728 33.684C289.899 33.684 288.516 34.0978 287.579 34.9253C286.686 35.7529 286.24 37.2556 286.24 39.4333V43.0267H294.605C295.363 43.0267 295.988 43.2662 296.479 43.7453C296.969 44.2244 297.215 44.8342 297.215 45.5747C297.215 46.2716 296.969 46.8813 296.479 47.404C295.988 47.8831 295.363 48.1227 294.605 48.1227H286.24V73.7333C286.24 74.5609 285.928 75.2578 285.304 75.824C284.724 76.3902 284.01 76.6733 283.162 76.6733Z" fill="black"/>
<path d="M306.69 36.232C305.754 36.232 304.951 35.9053 304.281 35.252C303.612 34.5987 303.278 33.8147 303.278 32.9V32.6387C303.278 31.724 303.612 30.94 304.281 30.2867C304.951 29.6333 305.754 29.3067 306.69 29.3067H307.092C308.029 29.3067 308.832 29.6333 309.501 30.2867C310.17 30.94 310.505 31.724 310.505 32.6387V32.9C310.505 33.8147 310.17 34.5987 309.501 35.252C308.832 35.9053 308.029 36.232 307.092 36.232H306.69ZM306.824 76.6733C305.977 76.6733 305.263 76.3902 304.683 75.824C304.103 75.2578 303.813 74.5609 303.813 73.7333V45.7053C303.813 44.8778 304.103 44.1809 304.683 43.6147C305.263 43.0049 305.977 42.7 306.824 42.7C307.717 42.7 308.453 42.9831 309.033 43.5493C309.613 44.1156 309.903 44.8342 309.903 45.7053V73.7333C309.903 74.5609 309.59 75.2578 308.966 75.824C308.386 76.3902 307.672 76.6733 306.824 76.6733Z" fill="black"/>
<path d="M323.488 76.6733C322.641 76.6733 321.927 76.3902 321.347 75.824C320.767 75.2578 320.477 74.5609 320.477 73.7333V31.332C320.477 30.5044 320.767 29.8076 321.347 29.2413C321.927 28.6316 322.641 28.3267 323.488 28.3267C324.381 28.3267 325.117 28.6098 325.697 29.176C326.277 29.7422 326.567 30.4609 326.567 31.332V73.7333C326.567 74.5609 326.254 75.2578 325.63 75.824C325.05 76.3902 324.336 76.6733 323.488 76.6733Z" fill="black"/>
<path d="M352.398 77C346.956 77 342.695 75.4973 339.617 72.492C336.583 69.4431 335.067 65.1747 335.067 59.6867C335.067 56.5942 335.647 53.7413 336.806 51.128C337.966 48.5147 339.751 46.4022 342.16 44.7907C344.569 43.1791 347.536 42.3733 351.06 42.3733C354.361 42.3733 357.216 43.1356 359.625 44.66C362.034 46.1409 363.863 48.1444 365.113 50.6707C366.362 53.1533 366.986 55.8756 366.986 58.8373C366.986 59.6649 366.696 60.3618 366.116 60.928C365.581 61.4942 364.845 61.7773 363.908 61.7773H341.223C341.58 64.8262 342.74 67.2 344.703 68.8987C346.666 70.5973 349.409 71.4467 352.934 71.4467C354.807 71.4467 356.436 71.2724 357.819 70.924C359.246 70.5756 360.629 70.0747 361.967 69.4213C362.324 69.2471 362.726 69.16 363.172 69.16C363.886 69.16 364.51 69.3996 365.046 69.8787C365.581 70.3578 365.849 70.9676 365.849 71.708C365.849 72.6662 365.269 73.472 364.109 74.1253C362.369 75.0836 360.651 75.8022 358.956 76.2813C357.261 76.7604 355.075 77 352.398 77ZM360.964 56.9427C360.83 54.8084 360.25 53.0227 359.224 51.5853C358.242 50.148 357.016 49.1027 355.543 48.4493C354.071 47.7524 352.577 47.404 351.06 47.404C349.543 47.404 348.049 47.7524 346.576 48.4493C345.104 49.1027 343.877 50.148 342.896 51.5853C341.915 53.0227 341.357 54.8084 341.223 56.9427H360.964Z" fill="black"/>
<path d="M386.085 77C381.624 77 377.564 76.02 373.906 74.06C373.148 73.5373 372.768 72.8187 372.768 71.904C372.768 71.2071 373.014 70.5973 373.504 70.0747C373.995 69.552 374.62 69.2907 375.378 69.2907C375.78 69.2907 376.181 69.3778 376.583 69.552C378.01 70.1618 379.438 70.6409 380.865 70.9893C382.293 71.3378 383.899 71.512 385.683 71.512C390.635 71.512 393.111 69.9658 393.111 66.8733C393.111 65.8716 392.531 65.1093 391.371 64.5867C390.256 64.064 388.405 63.476 385.817 62.8227C383.185 62.2129 380.999 61.5813 379.259 60.928C377.564 60.2747 376.092 59.2947 374.843 57.988C373.638 56.6378 373.036 54.8738 373.036 52.696C373.036 49.6471 374.151 47.1644 376.382 45.248C378.657 43.3316 381.891 42.3733 386.085 42.3733C389.52 42.3733 392.754 42.9178 395.788 44.0067C396.413 44.1809 396.881 44.5076 397.193 44.9867C397.55 45.4658 397.729 45.9667 397.729 46.4893C397.729 47.1862 397.461 47.796 396.926 48.3187C396.435 48.8413 395.81 49.1027 395.052 49.1027C394.829 49.1027 394.539 49.0591 394.182 48.972C391.594 48.188 389.052 47.796 386.553 47.796C384.144 47.796 382.248 48.2316 380.865 49.1027C379.527 49.9302 378.858 51.0191 378.858 52.3693C378.858 53.676 379.482 54.6342 380.732 55.244C381.981 55.8538 383.921 56.4418 386.553 57.008C389.185 57.6613 391.327 58.3147 392.977 58.968C394.628 59.5778 396.033 60.5578 397.193 61.908C398.398 63.2582 399 65.0658 399 67.3307C399 70.1182 397.862 72.4267 395.587 74.256C393.357 76.0853 390.189 77 386.085 77Z" fill="black"/>
<path d="M147.421 77C142.96 77 138.945 76.0636 135.376 74.1907C131.852 72.2742 129.063 69.552 127.011 66.024C125.004 62.4524 124 58.2929 124 53.5453C124 48.7978 125.004 44.66 127.011 41.132C129.063 37.5604 131.852 34.8382 135.376 32.9653C138.945 31.0489 142.96 30.0907 147.421 30.0907C150.455 30.0907 153.154 30.4391 155.518 31.136C157.927 31.8329 160.314 32.8347 162.678 34.1413C163.66 34.664 164.15 35.4916 164.15 36.624C164.15 37.2773 163.905 37.8653 163.414 38.388C162.924 38.8671 162.277 39.1067 161.474 39.1067C161.028 39.1067 160.626 39.0196 160.269 38.8453C158.306 37.8436 156.388 37.0813 154.514 36.5587C152.641 36.036 150.477 35.7747 148.023 35.7747C144.187 35.7747 140.908 36.5587 138.187 38.1267C135.51 39.6511 133.48 41.7636 132.097 44.464C130.759 47.1209 130.089 50.148 130.089 53.5453C130.089 56.9427 130.759 59.9916 132.097 62.692C133.48 65.3489 135.51 67.4613 138.187 69.0293C140.908 70.5538 144.187 71.316 148.023 71.316C150.477 71.316 152.641 71.0547 154.514 70.532C156.388 70.0093 158.306 69.2471 160.269 68.2453C160.626 68.0711 161.028 67.984 161.474 67.984C162.277 67.984 162.924 68.2236 163.414 68.7027C163.905 69.1818 164.15 69.7698 164.15 70.4667C164.15 71.5991 163.66 72.4267 162.678 72.9493C160.314 74.256 157.927 75.2578 155.518 75.9547C153.154 76.6516 150.455 77 147.421 77Z" stroke="black" stroke-width="1.4" mask="url(#path-2-outside-1_10:22)"/>
<path d="M175.146 76.6733C174.298 76.6733 173.584 76.3902 173.005 75.824C172.425 75.2578 172.135 74.5609 172.135 73.7333V31.332C172.135 30.5044 172.425 29.8076 173.005 29.2413C173.584 28.6316 174.298 28.3267 175.146 28.3267C176.038 28.3267 176.774 28.6098 177.354 29.176C177.934 29.7422 178.224 30.4609 178.224 31.332V73.7333C178.224 74.5609 177.912 75.2578 177.287 75.824C176.707 76.3902 175.993 76.6733 175.146 76.6733Z" stroke="black" stroke-width="1.4" mask="url(#path-2-outside-1_10:22)"/>
<path d="M191.676 36.232C190.739 36.232 189.936 35.9053 189.267 35.252C188.598 34.5987 188.263 33.8147 188.263 32.9V32.6387C188.263 31.724 188.598 30.94 189.267 30.2867C189.936 29.6333 190.739 29.3067 191.676 29.3067H192.078C193.014 29.3067 193.817 29.6333 194.487 30.2867C195.156 30.94 195.49 31.724 195.49 32.6387V32.9C195.49 33.8147 195.156 34.5987 194.487 35.252C193.817 35.9053 193.014 36.232 192.078 36.232H191.676ZM191.81 76.6733C190.962 76.6733 190.248 76.3902 189.669 75.824C189.089 75.2578 188.799 74.5609 188.799 73.7333V45.7053C188.799 44.8778 189.089 44.1809 189.669 43.6147C190.248 43.0049 190.962 42.7 191.81 42.7C192.702 42.7 193.438 42.9831 194.018 43.5493C194.598 44.1156 194.888 44.8342 194.888 45.7053V73.7333C194.888 74.5609 194.576 75.2578 193.951 75.824C193.371 76.3902 192.658 76.6733 191.81 76.6733Z" stroke="black" stroke-width="1.4" mask="url(#path-2-outside-1_10:22)"/>
<path d="M221.255 77C218.043 77 215.076 76.3031 212.355 74.9093C209.634 73.5156 207.448 71.512 205.797 68.8987C204.191 66.2853 203.388 63.2147 203.388 59.6867C203.388 56.1587 204.191 53.088 205.797 50.4747C207.448 47.8613 209.634 45.8578 212.355 44.464C215.076 43.0702 218.043 42.3733 221.255 42.3733C223.62 42.3733 225.649 42.6782 227.345 43.288C229.084 43.8542 230.691 44.5947 232.163 45.5093C233.055 46.0756 233.501 46.8378 233.501 47.796C233.501 48.4493 233.233 49.0591 232.698 49.6253C232.207 50.148 231.627 50.4093 230.958 50.4093C230.467 50.4093 229.977 50.2787 229.486 50.0173C228.014 49.2769 226.742 48.7542 225.672 48.4493C224.646 48.1009 223.352 47.9267 221.79 47.9267C217.954 47.9267 214.943 49.0156 212.757 51.1933C210.571 53.3276 209.478 56.1587 209.478 59.6867C209.478 63.2147 210.571 66.0676 212.757 68.2453C214.943 70.3796 217.954 71.4467 221.79 71.4467C223.352 71.4467 224.646 71.2942 225.672 70.9893C226.742 70.6409 228.014 70.0964 229.486 69.356C229.977 69.0947 230.467 68.964 230.958 68.964C231.627 68.964 232.207 69.2471 232.698 69.8133C233.233 70.336 233.501 70.924 233.501 71.5773C233.501 72.5356 233.055 73.2978 232.163 73.864C230.691 74.7787 229.084 75.5409 227.345 76.1507C225.649 76.7169 223.62 77 221.255 77Z" stroke="black" stroke-width="1.4" mask="url(#path-2-outside-1_10:22)"/>
<path d="M244.155 76.6733C243.307 76.6733 242.593 76.3902 242.013 75.824C241.433 75.2578 241.143 74.5609 241.143 73.7333V31.332C241.143 30.5044 241.433 29.8076 242.013 29.2413C242.593 28.6316 243.307 28.3267 244.155 28.3267C245.002 28.3267 245.716 28.6316 246.296 29.2413C246.92 29.8076 247.233 30.5044 247.233 31.332V58.0533L263.159 43.68C263.828 43.1138 264.497 42.8307 265.167 42.8307C266.193 42.8307 266.929 43.1138 267.375 43.68C267.866 44.2462 268.111 44.9213 268.111 45.7053C268.111 46.4458 267.732 47.1862 266.973 47.9267L257.337 56.3547L269.449 72.0347C269.895 72.6009 270.119 73.1889 270.119 73.7987C270.119 74.6698 269.829 75.3667 269.249 75.8893C268.669 76.412 267.933 76.6733 267.04 76.6733C266.594 76.6733 266.148 76.5644 265.702 76.3467C265.256 76.1289 264.877 75.824 264.564 75.432L253.055 60.144L247.233 65.3053V73.7333C247.233 74.5609 246.92 75.2578 246.296 75.824C245.716 76.3902 245.002 76.6733 244.155 76.6733Z" stroke="black" stroke-width="1.4" mask="url(#path-2-outside-1_10:22)"/>
<path d="M283.162 76.6733C282.315 76.6733 281.601 76.3902 281.021 75.824C280.441 75.2578 280.151 74.5609 280.151 73.7333V48.1227H276.203C275.489 48.1227 274.864 47.8831 274.329 47.404C273.838 46.8813 273.593 46.2716 273.593 45.5747C273.593 44.8342 273.838 44.2244 274.329 43.7453C274.864 43.2662 275.489 43.0267 276.203 43.0267H280.151V39.2373C280.151 36.624 280.619 34.4898 281.556 32.8347C282.538 31.136 283.787 29.9164 285.304 29.176C286.865 28.392 288.493 28 290.189 28C292.285 28 294.226 28.4356 296.01 29.3067C296.456 29.5244 296.813 29.8511 297.081 30.2867C297.393 30.6787 297.549 31.1142 297.549 31.5933C297.549 32.2467 297.304 32.8347 296.813 33.3573C296.323 33.8364 295.743 34.076 295.073 34.076C294.583 34.076 294.07 34.0107 293.534 33.88C292.464 33.7493 291.861 33.684 291.728 33.684C289.899 33.684 288.516 34.0978 287.579 34.9253C286.686 35.7529 286.24 37.2556 286.24 39.4333V43.0267H294.605C295.363 43.0267 295.988 43.2662 296.479 43.7453C296.969 44.2244 297.215 44.8342 297.215 45.5747C297.215 46.2716 296.969 46.8813 296.479 47.404C295.988 47.8831 295.363 48.1227 294.605 48.1227H286.24V73.7333C286.24 74.5609 285.928 75.2578 285.304 75.824C284.724 76.3902 284.01 76.6733 283.162 76.6733Z" stroke="black" stroke-width="1.4" mask="url(#path-2-outside-1_10:22)"/>
<path d="M306.69 36.232C305.754 36.232 304.951 35.9053 304.281 35.252C303.612 34.5987 303.278 33.8147 303.278 32.9V32.6387C303.278 31.724 303.612 30.94 304.281 30.2867C304.951 29.6333 305.754 29.3067 306.69 29.3067H307.092C308.029 29.3067 308.832 29.6333 309.501 30.2867C310.17 30.94 310.505 31.724 310.505 32.6387V32.9C310.505 33.8147 310.17 34.5987 309.501 35.252C308.832 35.9053 308.029 36.232 307.092 36.232H306.69ZM306.824 76.6733C305.977 76.6733 305.263 76.3902 304.683 75.824C304.103 75.2578 303.813 74.5609 303.813 73.7333V45.7053C303.813 44.8778 304.103 44.1809 304.683 43.6147C305.263 43.0049 305.977 42.7 306.824 42.7C307.717 42.7 308.453 42.9831 309.033 43.5493C309.613 44.1156 309.903 44.8342 309.903 45.7053V73.7333C309.903 74.5609 309.59 75.2578 308.966 75.824C308.386 76.3902 307.672 76.6733 306.824 76.6733Z" stroke="black" stroke-width="1.4" mask="url(#path-2-outside-1_10:22)"/>
<path d="M323.488 76.6733C322.641 76.6733 321.927 76.3902 321.347 75.824C320.767 75.2578 320.477 74.5609 320.477 73.7333V31.332C320.477 30.5044 320.767 29.8076 321.347 29.2413C321.927 28.6316 322.641 28.3267 323.488 28.3267C324.381 28.3267 325.117 28.6098 325.697 29.176C326.277 29.7422 326.567 30.4609 326.567 31.332V73.7333C326.567 74.5609 326.254 75.2578 325.63 75.824C325.05 76.3902 324.336 76.6733 323.488 76.6733Z" stroke="black" stroke-width="1.4" mask="url(#path-2-outside-1_10:22)"/>
<path d="M352.398 77C346.956 77 342.695 75.4973 339.617 72.492C336.583 69.4431 335.067 65.1747 335.067 59.6867C335.067 56.5942 335.647 53.7413 336.806 51.128C337.966 48.5147 339.751 46.4022 342.16 44.7907C344.569 43.1791 347.536 42.3733 351.06 42.3733C354.361 42.3733 357.216 43.1356 359.625 44.66C362.034 46.1409 363.863 48.1444 365.113 50.6707C366.362 53.1533 366.986 55.8756 366.986 58.8373C366.986 59.6649 366.696 60.3618 366.116 60.928C365.581 61.4942 364.845 61.7773 363.908 61.7773H341.223C341.58 64.8262 342.74 67.2 344.703 68.8987C346.666 70.5973 349.409 71.4467 352.934 71.4467C354.807 71.4467 356.436 71.2724 357.819 70.924C359.246 70.5756 360.629 70.0747 361.967 69.4213C362.324 69.2471 362.726 69.16 363.172 69.16C363.886 69.16 364.51 69.3996 365.046 69.8787C365.581 70.3578 365.849 70.9676 365.849 71.708C365.849 72.6662 365.269 73.472 364.109 74.1253C362.369 75.0836 360.651 75.8022 358.956 76.2813C357.261 76.7604 355.075 77 352.398 77ZM360.964 56.9427C360.83 54.8084 360.25 53.0227 359.224 51.5853C358.242 50.148 357.016 49.1027 355.543 48.4493C354.071 47.7524 352.577 47.404 351.06 47.404C349.543 47.404 348.049 47.7524 346.576 48.4493C345.104 49.1027 343.877 50.148 342.896 51.5853C341.915 53.0227 341.357 54.8084 341.223 56.9427H360.964Z" stroke="black" stroke-width="1.4" mask="url(#path-2-outside-1_10:22)"/>
<path d="M386.085 77C381.624 77 377.564 76.02 373.906 74.06C373.148 73.5373 372.768 72.8187 372.768 71.904C372.768 71.2071 373.014 70.5973 373.504 70.0747C373.995 69.552 374.62 69.2907 375.378 69.2907C375.78 69.2907 376.181 69.3778 376.583 69.552C378.01 70.1618 379.438 70.6409 380.865 70.9893C382.293 71.3378 383.899 71.512 385.683 71.512C390.635 71.512 393.111 69.9658 393.111 66.8733C393.111 65.8716 392.531 65.1093 391.371 64.5867C390.256 64.064 388.405 63.476 385.817 62.8227C383.185 62.2129 380.999 61.5813 379.259 60.928C377.564 60.2747 376.092 59.2947 374.843 57.988C373.638 56.6378 373.036 54.8738 373.036 52.696C373.036 49.6471 374.151 47.1644 376.382 45.248C378.657 43.3316 381.891 42.3733 386.085 42.3733C389.52 42.3733 392.754 42.9178 395.788 44.0067C396.413 44.1809 396.881 44.5076 397.193 44.9867C397.55 45.4658 397.729 45.9667 397.729 46.4893C397.729 47.1862 397.461 47.796 396.926 48.3187C396.435 48.8413 395.81 49.1027 395.052 49.1027C394.829 49.1027 394.539 49.0591 394.182 48.972C391.594 48.188 389.052 47.796 386.553 47.796C384.144 47.796 382.248 48.2316 380.865 49.1027C379.527 49.9302 378.858 51.0191 378.858 52.3693C378.858 53.676 379.482 54.6342 380.732 55.244C381.981 55.8538 383.921 56.4418 386.553 57.008C389.185 57.6613 391.327 58.3147 392.977 58.968C394.628 59.5778 396.033 60.5578 397.193 61.908C398.398 63.2582 399 65.0658 399 67.3307C399 70.1182 397.862 72.4267 395.587 74.256C393.357 76.0853 390.189 77 386.085 77Z" stroke="black" stroke-width="1.4" mask="url(#path-2-outside-1_10:22)"/>
<path d="M408 40.66C407.32 40.66 406.68 40.532 406.08 40.276C405.48 40.02 404.952 39.668 404.496 39.22C404.048 38.764 403.696 38.236 403.44 37.636C403.184 37.036 403.056 36.396 403.056 35.716C403.056 35.028 403.184 34.388 403.44 33.796C403.696 33.196 404.048 32.672 404.496 32.224C404.952 31.768 405.48 31.412 406.08 31.156C406.68 30.9 407.32 30.772 408 30.772C408.688 30.772 409.328 30.9 409.92 31.156C410.52 31.412 411.044 31.768 411.492 32.224C411.948 32.672 412.304 33.196 412.56 33.796C412.816 34.388 412.944 35.028 412.944 35.716C412.944 36.396 412.816 37.036 412.56 37.636C412.304 38.236 411.948 38.764 411.492 39.22C411.044 39.668 410.52 40.02 409.92 40.276C409.328 40.532 408.688 40.66 408 40.66ZM408 39.988C408.592 39.988 409.144 39.88 409.656 39.664C410.176 39.44 410.632 39.132 411.024 38.74C411.416 38.348 411.72 37.896 411.936 37.384C412.16 36.864 412.272 36.308 412.272 35.716C412.272 35.124 412.16 34.572 411.936 34.06C411.72 33.54 411.416 33.084 411.024 32.692C410.632 32.3 410.176 31.996 409.656 31.78C409.144 31.556 408.592 31.444 408 31.444C407.408 31.444 406.852 31.556 406.332 31.78C405.82 31.996 405.368 32.3 404.976 32.692C404.584 33.084 404.276 33.54 404.052 34.06C403.836 34.572 403.728 35.124 403.728 35.716C403.728 36.308 403.836 36.864 404.052 37.384C404.276 37.896 404.584 38.348 404.976 38.74C405.368 39.132 405.82 39.44 406.332 39.664C406.852 39.88 407.408 39.988 408 39.988ZM406.44 38.26V33.112H407.976C408.688 33.112 409.196 33.232 409.5 33.472C409.812 33.704 409.968 34.08 409.968 34.6C409.968 35.232 409.616 35.68 408.912 35.944L410.352 38.26H409.392L408.156 36.16H407.268V38.26H406.44ZM407.268 35.524H407.976C408.728 35.524 409.104 35.224 409.104 34.624C409.104 34.288 409 34.064 408.792 33.952C408.592 33.832 408.304 33.772 407.928 33.772H407.268V35.524Z" fill="black"/>
</svg>
